<?xml version="1.0" encoding="iso-8859-1"?>
<!-- Generator: Adobe Illustrator 19.0.0, SVG Export Plug-In . SVG Version: 6.00 Build 0)  -->
<svg version="1.1" id="Layer_1" xmlns="http://www.w3.org/2000/svg" xmlns:xlink="http://www.w3.org/1999/xlink" x="0px" y="0px"
	 viewBox="0 0 512 512" style="enable-background:new 0 0 512 512;" xml:space="preserve">
<path style="fill:#1E0478;" d="M492.868,100.398c16.3,16.3,16.3,42.833,0,59.134l-82.775,82.775v242.665
	c0,14.904-12.123,27.027-27.015,27.027H33.934c-14.904,0-27.027-12.123-27.027-27.027V114.733c0-3.275,1.298-6.426,3.621-8.737
	L112.903,3.621C115.214,1.298,118.365,0,121.64,0h261.438c14.892,0,27.015,12.123,27.015,27.027v67.921l9.096-9.096
	c16.3-16.3,42.833-16.3,59.134,0L492.868,100.398z M475.381,142.057c6.673-6.673,6.673-17.512,0-24.185l-14.533-14.533
	c-6.673-6.673-17.512-6.673-24.185,0l-15.571,15.571l38.718,38.718L475.381,142.057z M244.691,372.748l197.645-197.645
	l-38.718-38.718L205.972,334.03L244.691,372.748z M303.763,201.278l82.133-82.133c-0.346-1.112-0.519-2.299-0.519-3.522V27.027
	c0-1.273-1.026-2.311-2.299-2.311H133.998v75.36c0,14.892-12.123,27.015-27.015,27.015h-75.36v357.881
	c0,1.273,1.038,2.311,2.311,2.311h349.144c1.273,0,2.299-1.038,2.299-2.311V267.024L253.428,398.972
	c-1.508,1.508-3.386,2.595-5.438,3.164c0,0-77.931,21.627-77.993,21.639c-0.395,0.111-3.102,0.408-3.114,0.408H103.56
	c-6.822,0-12.358-5.524-12.358-12.358c0-6.822,5.536-12.358,12.358-12.358h53.931l19.093-68.736c0.568-2.064,1.656-3.93,3.164-5.438
	l0.198-0.198H103.56c-6.822,0-12.358-5.536-12.358-12.358c0-6.822,5.536-12.358,12.358-12.358h101.102l74.384-74.384H103.56
	c-6.822,0-12.358-5.524-12.358-12.358c0-6.822,5.536-12.358,12.358-12.358H303.763z M184.642,394.078l36.333-10.084l-26.249-26.249
	L184.642,394.078z M109.282,100.077V42.203L49.11,102.375h57.873C108.256,102.375,109.282,101.35,109.282,100.077z"/>
<path style="fill:#9B8CCC;" d="M475.381,117.872c6.673,6.673,6.673,17.512,0,24.185l-15.571,15.571l-38.718-38.718l15.571-15.571
	c6.673-6.673,17.512-6.673,24.185,0L475.381,117.872z"/>
<rect x="184.398" y="227.195" transform="matrix(-0.7071 0.7071 -0.7071 -0.7071 733.3798 205.3737)" style="fill:#6F7CCD;" width="279.515" height="54.759"/>
<path style="fill:#94E7EF;" d="M385.895,119.145l-82.133,82.133H103.56c-6.822,0-12.358,5.536-12.358,12.358
	c0,6.834,5.536,12.358,12.358,12.358h175.486l-74.384,74.384H103.56c-6.822,0-12.358,5.536-12.358,12.358
	c0,6.822,5.536,12.358,12.358,12.358h76.386l-0.198,0.198c-1.508,1.508-2.595,3.374-3.164,5.438l-19.093,68.736H103.56
	c-6.822,0-12.358,5.536-12.358,12.358c0,6.834,5.536,12.358,12.358,12.358h63.323c0.012,0,2.719-0.297,3.114-0.408
	c0.062-0.012,77.993-21.639,77.993-21.639c2.051-0.568,3.93-1.656,5.438-3.164l131.948-131.948v217.949
	c0,1.273-1.026,2.311-2.299,2.311H33.934c-1.273,0-2.311-1.038-2.311-2.311V127.092h75.36c14.892,0,27.015-12.123,27.015-27.015
	v-75.36h249.079c1.273,0,2.299,1.038,2.299,2.311v88.596C385.376,116.847,385.549,118.033,385.895,119.145z"/>
<polygon style="fill:#9B8CCC;" points="220.975,383.994 184.642,394.078 194.727,357.745 "/>
<path style="fill:#94E7EF;" d="M109.282,42.203v57.873c0,1.273-1.026,2.299-2.299,2.299H49.11L109.282,42.203z"/>
<g>
</g>
<g>
</g>
<g>
</g>
<g>
</g>
<g>
</g>
<g>
</g>
<g>
</g>
<g>
</g>
<g>
</g>
<g>
</g>
<g>
</g>
<g>
</g>
<g>
</g>
<g>
</g>
<g>
</g>
</svg>
