<?xml version="1.0" encoding="iso-8859-1"?>
<!-- Generator: Adobe Illustrator 19.0.0, SVG Export Plug-In . SVG Version: 6.00 Build 0)  -->
<svg version="1.1" id="Layer_1" xmlns="http://www.w3.org/2000/svg" xmlns:xlink="http://www.w3.org/1999/xlink" x="0px" y="0px"
	 viewBox="0 0 512 512" style="enable-background:new 0 0 512 512;" xml:space="preserve">
<path style="fill:#9B8CCC;" d="M376.964,79.584v118.911H242.75c-15.895,0-28.831,12.924-28.831,28.831v62.988
	c-17.9,0.012-62.59,0.024-62.771,0.048c-2.814,0.181-5.568,1.341-7.718,3.491l-68.17,68.17c0,0-0.024-60.392-0.06-60.706
	c-0.556-6.16-5.725-11.003-12.03-11.003H28.831c-2.585,0-4.674-2.09-4.674-4.674V79.584c0-2.573,2.09-4.674,4.674-4.674H372.29
	C374.875,74.91,376.964,77.011,376.964,79.584z M322.552,142.693c0-6.679-5.411-12.078-12.078-12.078H90.648
	c-6.667,0-12.078,5.399-12.078,12.078c0,6.667,5.411,12.078,12.078,12.078h219.825C317.14,154.772,322.552,149.361,322.552,142.693z
	 M186.151,222.543c0-6.667-5.411-12.078-12.078-12.078H90.648c-6.667,0-12.078,5.411-12.078,12.078s5.411,12.078,12.078,12.078
	h83.425C180.74,234.621,186.151,229.21,186.151,222.543z"/>
<path style="fill:#94E7EF;" d="M487.843,227.326v140.567c0,2.573-2.09,4.674-4.674,4.674h-20.376
	c-6.353,0-11.547,4.916-12.03,11.148c-0.024,0.266-0.048,36.295-0.048,36.295l-43.856-43.856c-0.048-0.048-0.097-0.097-0.133-0.133
	c-0.181-0.169-0.338-0.314-0.495-0.447c-2.126-1.872-4.904-3.007-7.948-3.007H242.75c-2.573,0-4.674-2.102-4.674-4.674V227.326
	c0-2.585,2.102-4.674,4.674-4.674h240.419C485.754,222.652,487.843,224.741,487.843,227.326z M431.16,297.61
	c0-6.667-5.411-12.078-12.078-12.078c-6.667,0-12.078,5.411-12.078,12.078s5.411,12.078,12.078,12.078
	C425.749,309.688,431.16,304.277,431.16,297.61z M375.044,297.61c0-6.667-5.411-12.078-12.078-12.078
	c-6.667,0-12.078,5.411-12.078,12.078s5.411,12.078,12.078,12.078C369.633,309.688,375.044,304.277,375.044,297.61z M318.916,297.61
	c0-6.667-5.411-12.078-12.078-12.078c-6.667,0-12.078,5.411-12.078,12.078s5.411,12.078,12.078,12.078
	C313.505,309.688,318.916,304.277,318.916,297.61z"/>
<g>
	<path style="fill:#1E0478;" d="M419.082,285.531c6.667,0,12.078,5.411,12.078,12.078s-5.411,12.078-12.078,12.078
		c-6.667,0-12.078-5.411-12.078-12.078S412.414,285.531,419.082,285.531z"/>
	<path style="fill:#1E0478;" d="M213.919,314.471H156.97l-85.249,85.261c-2.319,2.307-5.399,3.539-8.551,3.539
		c-1.546,0-3.116-0.302-4.614-0.93c-4.517-1.86-7.452-6.269-7.452-11.148v-76.721H28.831C12.924,314.471,0,301.547,0,285.64V79.584
		c0-15.895,12.924-28.831,28.831-28.831H372.29c15.895,0,28.831,12.936,28.831,28.831v118.911h82.048
		c15.907,0,28.831,12.924,28.831,28.831v140.568c0,15.895-12.924,28.831-28.831,28.831h-8.298v52.444
		c0,4.88-2.947,9.288-7.452,11.16c-1.498,0.616-3.068,0.918-4.626,0.918c-3.14,0-6.232-1.232-8.539-3.539l-60.983-60.983H242.75
		c-15.895,0-28.831-12.936-28.831-28.831V314.471z M376.964,198.495V79.584c0-2.573-2.09-4.674-4.674-4.674H28.831
		c-2.585,0-4.674,2.102-4.674,4.674V285.64c0,2.585,2.09,4.674,4.674,4.674H63.17c6.305,0,11.474,4.843,12.03,11.003
		c0.036,0.314,0.06,60.706,0.06,60.706l68.17-68.17c2.15-2.15,4.904-3.309,7.718-3.491c0.181-0.024,44.871-0.036,62.771-0.048
		v-62.988c0-15.907,12.936-28.831,28.831-28.831L376.964,198.495L376.964,198.495z M487.843,367.894V227.326
		c0-2.585-2.09-4.674-4.674-4.674H242.75c-2.573,0-4.674,2.09-4.674,4.674v140.567c0,2.573,2.102,4.674,4.674,4.674h155.533
		c3.044,0,5.822,1.135,7.948,3.008c0.157,0.133,0.314,0.278,0.495,0.447c0.036,0.036,0.085,0.085,0.133,0.133l43.856,43.856
		c0,0,0.024-36.03,0.048-36.295c0.483-6.232,5.677-11.148,12.03-11.148h20.376C485.754,372.568,487.843,370.466,487.843,367.894z"/>
	<path style="fill:#1E0478;" d="M362.966,285.531c6.667,0,12.078,5.411,12.078,12.078s-5.411,12.078-12.078,12.078
		c-6.667,0-12.078-5.411-12.078-12.078S356.298,285.531,362.966,285.531z"/>
	<path style="fill:#1E0478;" d="M310.473,130.615c6.667,0,12.078,5.399,12.078,12.078c0,6.667-5.411,12.078-12.078,12.078H90.648
		c-6.667,0-12.078-5.411-12.078-12.078c0-6.679,5.411-12.078,12.078-12.078H310.473z"/>
	<path style="fill:#1E0478;" d="M306.838,285.531c6.667,0,12.078,5.411,12.078,12.078s-5.411,12.078-12.078,12.078
		c-6.667,0-12.078-5.411-12.078-12.078C294.759,290.943,300.17,285.531,306.838,285.531z"/>
	<path style="fill:#1E0478;" d="M174.073,210.465c6.667,0,12.078,5.411,12.078,12.078s-5.411,12.078-12.078,12.078H90.648
		c-6.667,0-12.078-5.411-12.078-12.078s5.411-12.078,12.078-12.078H174.073z"/>
</g>
<g>
</g>
<g>
</g>
<g>
</g>
<g>
</g>
<g>
</g>
<g>
</g>
<g>
</g>
<g>
</g>
<g>
</g>
<g>
</g>
<g>
</g>
<g>
</g>
<g>
</g>
<g>
</g>
<g>
</g>
</svg>
